PathFileType	4	(X/Y/Z)	C:\Users\Basilio\Documents\Thesis Gigler\squatting_fais\c3dfiles\054\SLS_back_pre4\markers_experimental.trc
DataRate	CameraRate	NumFrames	NumMarkers	Units	OrigDataRate	OrigDataStartFrame	OrigNumFrames
200.000000	200.000000	4	61	mm	200.000000	0	1535
Frame#	Time	FHD			LBHD			RBHD			C7			T10			CLAV			LSHO			LUUPA			LMUPA			LDUPA			LLEP			LMEP			LRAD			LUL			LRFIN			RSHO			RUPA1			RMUPA			RDUPA			RLEP			RMEP			RRAD			RUL			RUFIN			LASI			RASI			USACR			LSACR			RSACR			LTHI1			LTHI2			LTHI3			LTHI4			LLFC			LMFC			LTIB1			LTIB2			LTIB3			LTIB4			LLMAL			LMMAL			LHEE			LMT1			LMT2			LMT5			RTHI			RTHI2			RTHI3			RTHI4			RLFC			RMFC			RTIB1			RTIB2			RTIB3			RTIB4			RLMAL			RMMAL			RHEE			RMT1			RMT2			RMT5			
		X1	Y1	Z1	X2	Y2	Z2	X3	Y3	Z3	X4	Y4	Z4	X5	Y5	Z5	X6	Y6	Z6	X7	Y7	Z7	X8	Y8	Z8	X9	Y9	Z9	X10	Y10	Z10	X11	Y11	Z11	X12	Y12	Z12	X13	Y13	Z13	X14	Y14	Z14	X15	Y15	Z15	X16	Y16	Z16	X17	Y17	Z17	X18	Y18	Z18	X19	Y19	Z19	X20	Y20	Z20	X21	Y21	Z21	X22	Y22	Z22	X23	Y23	Z23	X24	Y24	Z24	X25	Y25	Z25	X26	Y26	Z26	X27	Y27	Z27	X28	Y28	Z28	X29	Y29	Z29	X30	Y30	Z30	X31	Y31	Z31	X32	Y32	Z32	X33	Y33	Z33	X34	Y34	Z34	X35	Y35	Z35	X36	Y36	Z36	X37	Y37	Z37	X38	Y38	Z38	X39	Y39	Z39	X40	Y40	Z40	X41	Y41	Z41	X42	Y42	Z42	X43	Y43	Z43	X44	Y44	Z44	X45	Y45	Z45	X46	Y46	Z46	X47	Y47	Z47	X48	Y48	Z48	X49	Y49	Z49	X50	Y50	Z50	X51	Y51	Z51	X52	Y52	Z52	X53	Y53	Z53	X54	Y54	Z54	X55	Y55	Z55	X56	Y56	Z56	X57	Y57	Z57	X58	Y58	Z58	X59	Y59	Z59	X60	Y60	Z60	X61	Y61	Z61	

1	0	-217.0493927001954	1784.760131835938	-888.5852050781252	-379.7785644531251	1731.328247070313	-955.2713012695315	-394.1578979492189	1731.667846679688	-815.5606079101565	-421.3973083496095	1552.114135742188	-872.639587402344	-411.6468505859376	1220.9736328125	-877.462585449219	-271.9522705078126	1511.080322265625	-883.5607910156252	-355.1622924804688	1555.501098632813	-1031.2705078125	-198.4730682373047	1440.660522460938	-1153.758544921875	-166.7096710205078	1475.782348632813	-1139.29248046875	-129.3542785644532	1434.126586914063	-1162.022705078125	-70.54808044433595	1439.593872070313	-1157.701416015625	-68.74507904052736	1372.792602539063	-1112.702758789063	171.3125305175782	1479.20654296875	-1045.2841796875	199.6524810791016	1448.729614257813	-1111.282836914063	264.3853759765626	1505.882080078125	-1050.984130859375	-339.9364013671876	1555.521850585938	-732.0887451171876	-176.1987457275391	1439.6845703125	-614.0003051757814	-141.952865600586	1471.486328125	-626.4766845703126	-107.2716140747071	1424.169189453125	-607.1834106445314	-62.37460708618165	1419.950561523438	-611.7717895507814	-67.93682861328126	1364.31005859375	-664.5784301757814	183.4643096923828	1490.878784179688	-749.4562988281251	197.3461608886719	1458.105590820313	-677.6021728515626	256.2810974121094	1527.495971679688	-743.5145263671876	-210.3718719482422	1063.39697265625	-1005.404541015625	-207.6463775634766	1066.616577148438	-749.9055175781251	-402.7236328125001	1138.716430664063	-876.802429199219	-406.4747619628907	1106.408203125	-904.726501464844	-404.8775634765626	1105.651977539063	-847.978942871094	-312.1242675781251	829.5945434570315	-1095.18017578125	-285.1677856445313	748.5020141601564	-1098.021606445313	-237.8941802978516	749.1041870117189	-1091.945190429688	-316.7696533203126	696.7578125000001	-1083.879272460938	-326.4817199707032	542.7579956054689	-1072.286499023438	-291.7529296875001	524.9578857421876	-938.1021728515627	-283.6211547851563	376.3673400878907	-1038.08837890625	-336.3387756347657	336.2057495117188	-1099.093994140625	-296.9622497558594	331.3457946777344	-1074.147827148438	-300.6947021484376	250.9913330078126	-1047.910400390625	-358.6042480468751	114.7674865722657	-1096.084228515625	-327.0719909667969	131.12353515625	-1005.087707519531	-428.0218505859376	102.8214569091797	-1041.03271484375	-215.8561096191407	56.98668289184572	-1020.394165039063	-208.5892486572266	54.98567962646486	-1069.907958984375	-260.9361877441407	39.45698547363282	-1121.122924804688	-318.7104492187501	763.5084228515626	-678.8132324218751	-287.8358764648438	704.6834106445314	-678.7146606445314	-254.7360076904297	702.5332641601564	-681.5089721679689	-323.0693054199219	631.5320434570314	-698.1823730468751	-344.0871887207032	539.4134521484376	-703.5582885742189	-286.7767028808594	535.1926879882814	-830.9746704101565	-292.1570739746094	430.4442749023439	-705.6737060546876	-365.4053649902344	360.2301330566407	-673.2677001953126	-319.7794799804688	351.6443786621094	-680.3449707031251	-304.7933959960938	300.3026123046876	-701.9767456054689	-362.7615051269532	123.8182601928711	-679.1132202148439	-320.2301940917969	136.9898986816407	-762.2534179687501	-422.8409729003907	100.4749145507813	-739.8045654296876	-203.5476837158204	54.1298065185547	-745.2208862304689	-203.9815979003907	53.1907196044922	-697.3494873046876	-255.5418701171876	37.62119293212891	-652.0136718750001	
2	0.005	-217.0614929199219	1784.787353515625	-888.5396728515627	-379.8176574707032	1731.357299804688	-955.2713012695315	-394.1907348632814	1731.669189453125	-815.566101074219	-421.4675598144532	1552.111206054688	-872.6253662109377	-411.6480407714845	1220.95166015625	-877.463073730469	-271.9522705078126	1511.080322265625	-883.5607910156252	-355.1398315429688	1555.504638671875	-1031.202514648438	-198.3786926269532	1440.703247070313	-1153.761840820313	-166.6519012451172	1475.8046875	-1139.282592773438	-129.3560028076172	1434.190673828125	-1162.024169921875	-70.55541229248048	1439.6298828125	-1157.702270507813	-68.74402618408205	1372.878295898438	-1112.670166015625	171.2231750488282	1479.272583007813	-1045.299194335938	199.6948242187501	1448.799926757813	-1111.212280273438	264.4109191894532	1505.927612304688	-1050.903564453125	-340.0563964843751	1555.519409179688	-732.0684814453126	-176.2542877197266	1439.693115234375	-613.9655761718751	-141.9437561035157	1471.508056640625	-626.4796142578126	-107.3191757202149	1424.161376953125	-607.1311645507814	-62.37908172607423	1419.929565429688	-611.7600708007814	-67.92513275146486	1364.311889648438	-664.5401611328126	183.2623138427735	1490.894653320313	-749.3148193359376	197.3272094726563	1458.105102539063	-677.5694580078126	256.2526550292969	1527.494873046875	-743.5331420898439	-210.3892517089844	1063.375122070313	-1005.392272949219	-207.6463775634766	1066.616577148438	-749.9055175781251	-402.7554931640626	1138.71630859375	-876.818054199219	-406.4723205566407	1106.40673828125	-904.7566528320315	-404.7117614746095	1105.646484375	-848.036804199219	-312.0885009765626	829.6099853515627	-1095.177978515625	-285.0821838378907	748.5088500976564	-1098.033935546875	-237.8639373779297	749.1190795898439	-1091.938598632813	-316.7428283691407	696.7876586914064	-1083.873779296875	-326.4799804687501	542.7763671875001	-1072.291748046875	-291.7529296875001	524.9578857421876	-938.1021728515627	-283.6260681152344	376.3809814453126	-1038.0869140625	-336.3570556640626	336.2156982421876	-1099.098266601563	-296.9405517578126	331.3439941406251	-1074.183227539063	-300.7104492187501	250.9500732421876	-1047.909790039063	-358.6539001464844	114.7705535888672	-1096.0830078125	-327.0900268554688	131.1104125976563	-1005.086791992188	-428.4099426269532	103.1402282714844	-1040.854614257813	-215.8561096191407	56.98668289184572	-1020.394165039063	-209.1017456054688	55.31344985961915	-1070.06396484375	-260.9227905273438	39.47711944580079	-1121.104614257813	-318.6784667968751	763.5192260742189	-678.8083496093751	-287.9068298339844	704.7109985351564	-678.7135009765626	-254.7375640869141	702.5468139648439	-681.4966430664064	-323.0451049804688	631.5300903320314	-698.1932373046876	-344.0541076660157	539.4417114257814	-703.5725708007814	-286.7552795410157	535.1997680664064	-830.9959716796877	-292.1375122070313	430.4531250000001	-705.6345825195314	-365.4107055664063	360.2309265136719	-673.2573852539064	-319.7772827148438	351.6577453613282	-680.3664550781251	-304.8100891113282	300.2962036132813	-702.0047607421876	-362.7915039062501	123.8396453857422	-679.1213989257814	-320.2784729003907	136.9684600830078	-762.2667846679689	-422.8658752441407	100.4724578857422	-739.8092041015626	-203.5500640869141	54.12046051025392	-745.1906127929689	-203.9562225341797	53.17916107177736	-697.3886108398439	-255.5444793701172	37.60540390014649	-652.0035400390626	
3	0.01	-217.0745697021485	1784.762451171875	-888.5560302734377	-379.8176574707032	1731.357299804688	-955.2713012695315	-394.222869873047	1731.681884765625	-815.5154418945315	-421.4767456054689	1552.117797851563	-872.6002197265627	-411.7027282714845	1220.979370117188	-877.455017089844	-271.9523620605469	1511.112670898438	-883.536560058594	-355.2142333984376	1555.500244140625	-1031.200561523438	-198.4127197265626	1440.750732421875	-1153.744262695313	-166.7362365722657	1475.893432617188	-1139.301391601563	-129.3056335449219	1434.231201171875	-1162.032348632813	-70.52687835693361	1439.667236328125	-1157.700317382813	-68.74390411376955	1372.85205078125	-1112.675415039063	171.2431030273438	1479.334716796875	-1045.2255859375	199.6096801757813	1448.856567382813	-1111.2041015625	263.9002075195313	1506.315307617188	-1050.8154296875	-340.0302429199219	1555.522705078125	-732.0630493164064	-176.2516632080078	1439.726806640625	-613.9467163085939	-142.0371551513672	1471.520874023438	-626.4165649414064	-107.4161834716797	1424.17333984375	-607.0894165039064	-62.46336746215822	1419.934326171875	-611.7688598632814	-67.98862457275392	1364.341674804688	-664.5089111328126	183.5446166992188	1490.948974609375	-749.5430297851564	197.3253021240235	1458.139404296875	-677.5474243164064	256.2370605468751	1527.482299804688	-743.5142211914064	-210.4357452392579	1063.3876953125	-1005.378112792969	-207.6626892089844	1066.630615234375	-749.9351196289064	-402.8218688964845	1138.707885742188	-876.8079223632815	-406.4886474609376	1106.409057617188	-904.7246704101565	-404.9004821777345	1105.639404296875	-847.9763793945315	-312.6428222656251	829.575622558594	-1095.015380859375	-285.0985717773438	748.5185546875001	-1098.033447265625	-237.8565216064454	749.0945434570314	-1091.912719726563	-316.7408447265626	696.7680053710939	-1083.874633789063	-326.1594238281251	542.7337646484376	-1072.409912109375	-291.7528991699219	524.9578857421876	-938.1021118164065	-283.6211547851563	376.3673400878907	-1038.08837890625	-336.3428955078126	336.1846923828126	-1099.09716796875	-296.8776855468751	331.3869934082032	-1074.2001953125	-300.7104492187501	250.9500732421876	-1047.909790039063	-358.6539611816407	114.7706756591797	-1096.0830078125	-327.0720825195313	131.1235046386719	-1005.087646484375	-428.4224243164064	103.147087097168	-1040.855712890625	-215.8392791748047	56.98264694213869	-1020.371032714844	-209.0325622558594	55.05974578857423	-1070.156982421875	-260.9548950195313	39.4546127319336	-1121.059448242188	-318.7104492187501	763.5084228515626	-678.8132324218751	-287.9390563964844	704.7299804687501	-678.6851196289064	-254.7376098632813	702.5441284179689	-681.5046386718751	-323.1155395507813	631.5372314453126	-698.1926879882814	-344.1000366210938	539.4566650390626	-703.5502929687501	-286.6130676269532	535.2810058593751	-830.9942626953127	-292.1561279296876	430.457489013672	-705.6522216796876	-365.4126281738282	360.2291259765626	-673.2656860351564	-319.7715759277344	351.6596984863282	-680.3618774414064	-304.8100891113282	300.2962036132813	-702.0047607421876	-362.7973022460938	123.8254928588867	-679.1251831054689	-320.2650756835938	137.0082550048828	-762.2132568359376	-422.8719177246095	100.4791412353516	-739.7747802734376	-203.5771636962891	54.113826751709	-745.1997070312501	-203.9820251464844	53.18954467773439	-697.3521118164064	-255.5475463867188	37.59508132934571	-652.0114135742189	
4	0.015	-217.0927734375001	1784.738891601563	-888.5092773437502	-379.7785644531251	1731.328247070313	-955.2713012695315	-394.207733154297	1731.669189453125	-815.5041503906252	-421.5132446289064	1552.09619140625	-872.5886840820315	-411.7362365722657	1220.956909179688	-877.4721679687502	-271.9558410644532	1511.135986328125	-883.536315917969	-355.1770629882813	1555.533081054688	-1031.189453125	-198.4262084960938	1440.83447265625	-1153.751220703125	-166.684326171875	1475.900756835938	-1139.268676757813	-129.2950134277344	1434.232788085938	-1162.002563476563	-70.53921508789064	1439.762329101563	-1157.658325195313	-68.77276611328126	1372.918212890625	-1112.632080078125	171.1771545410157	1479.434204101563	-1045.203002929688	199.5794525146485	1448.944091796875	-1111.1884765625	264.3508911132813	1506.131591796875	-1050.799560546875	-340.1236267089844	1555.53173828125	-732.0473632812501	-176.2539215087891	1439.734130859375	-613.9499511718751	-142.0697326660157	1471.545532226563	-626.3909912109376	-107.4944229125977	1424.147094726563	-607.0742187500001	-62.45706176757814	1419.923828125	-611.6838378906251	-68.04199218750001	1364.353393554688	-664.4688110351564	183.4512023925782	1490.977294921875	-749.4630737304689	197.2930755615235	1458.1396484375	-677.5328369140626	256.2220153808594	1527.490600585938	-743.5365600585939	-210.3960876464844	1063.392700195313	-1005.37255859375	-207.6824035644532	1066.6123046875	-749.9036254882814	-402.8218688964845	1138.707885742188	-876.8079223632815	-406.478973388672	1106.411743164063	-904.7556762695315	-404.7278442382814	1105.6689453125	-848.0446777343752	-312.6748352050782	829.5800781250002	-1095.027954101563	-285.0860595703126	748.5183715820314	-1098.053466796875	-237.8148651123047	749.1171875000001	-1091.940673828125	-316.7014770507813	696.7665405273439	-1083.8759765625	-326.1276245117188	542.7568359375001	-1072.408325195313	-291.7529296875001	524.9578857421876	-938.1021728515627	-283.6211547851563	376.3673400878907	-1038.08837890625	-336.2473754882813	336.1884460449219	-1099.109375	-296.9472045898438	331.2964477539063	-1074.17919921875	-300.7322998046876	250.9486999511719	-1047.875610351563	-358.6431579589844	114.7355499267578	-1096.1171875	-327.0620727539063	131.1414031982422	-1005.093078613281	-428.3636169433595	103.1302337646485	-1040.856567382813	-216.1796112060547	56.98434448242189	-1020.460083007813	-208.4712677001954	55.29382705688478	-1069.7392578125	-260.9576110839844	39.47418975830079	-1121.067504882813	-318.7104492187501	763.5084228515626	-678.8132324218751	-287.9554748535157	704.7381591796876	-678.6445922851564	-254.7371520996094	702.5484619140626	-681.4988403320314	-323.0513610839844	631.5414428710939	-698.1959228515626	-344.1177673339844	539.4547729492189	-703.5396728515626	-286.7655944824219	535.2289428710939	-830.994567871094	-292.1571044921876	430.4442749023439	-705.6737060546876	-365.4167480468751	360.2412414550782	-673.2457275390626	-319.8115539550782	351.6447143554688	-680.3528442382814	-304.8100891113282	300.2962036132813	-702.0047607421876	-362.7841491699219	123.829216003418	-679.1199340820314	-320.2638854980469	136.9683837890625	-762.2488403320314	-422.8447570800782	100.4719696044922	-739.7843017578126	-203.5576629638672	54.1190528869629	-745.1913452148439	-203.9865264892579	53.22201156616212	-697.3517456054689	-255.5773162841797	37.59801864624024	-651.9919433593751	
